<?xml version="1.0" encoding="utf-8"?>
<svg width="16px" height="16px" viewBox="0 0 16 16" version="1.1" xmlns:xlink="http://www.w3.org/1999/xlink" xmlns="http://www.w3.org/2000/svg">
  <g id="iconclose-image">
    <path d="M8 16C12.4183 16 16 12.4183 16 8C16 3.58172 12.4183 0 8 0C3.58172 0 0 3.58172 0 8C0 12.4183 3.58172 16 8 16Z" id="Oval" fill="#137EBB" fill-rule="evenodd" stroke="none" />
    <path d="M11.9296 11.5179C11.9597 11.5426 11.9817 11.5757 11.9929 11.6129C12.0024 11.6482 12.0024 11.6853 11.9929 11.7206C12.0023 11.758 12.0023 11.7972 11.9929 11.8346C11.9817 11.8718 11.9597 11.9049 11.9296 11.9296C11.8776 11.9865 11.804 12.0187 11.7269 12.0183C11.648 12.0189 11.5723 11.9868 11.5179 11.9296L8.00915 8.42082L4.50036 11.9296C4.47567 11.9597 4.4426 11.9817 4.40536 11.9929C4.37008 12.0023 4.33296 12.0023 4.29769 11.9929C4.21859 11.9944 4.14261 11.9622 4.08868 11.9043C4.03145 11.8499 3.99934 11.7742 4.00001 11.6953C3.99956 11.6182 4.03178 11.5446 4.08868 11.4926L7.59113 8.00914L4.08868 4.50035C4.03145 4.44597 3.99934 4.37029 4.00001 4.29134C4.00079 4.2127 4.03267 4.13756 4.08868 4.08234C4.14298 4.02961 4.21567 4.00008 4.29135 4C4.36886 4.00038 4.44342 4.02975 4.50036 4.08234L8.00915 7.59112L11.5179 4.08234C11.5749 4.02975 11.6494 4.00038 11.7269 4C11.8024 4.00135 11.8746 4.03069 11.9296 4.08234C11.9587 4.11042 11.9804 4.14522 11.9929 4.18367C12.0024 4.21895 12.0024 4.25607 11.9929 4.29134C12.0018 4.32882 12.0018 4.36787 11.9929 4.40535C11.9817 4.44259 11.9597 4.47566 11.9296 4.50035L8.42083 8.00914L11.9296 11.5179Z" id="Path" fill="#FFFFFF" fill-rule="evenodd" stroke="none" />
  </g>
</svg>