<svg xmlns="http://www.w3.org/2000/svg" width="20" height="20" viewBox="0 0 20 20">
  <g id="bx-home-circle" transform="translate(-24 -62)">
    <rect id="Background" width="20" height="20" transform="translate(24 62)" fill="none"/>
    <path id="Shape" d="M39,80.333H29a1.669,1.669,0,0,1-1.667-1.667V72.833H26.5a.833.833,0,0,1-.589-1.423l7.5-7.5a.832.832,0,0,1,1.178,0l7.5,7.5a.833.833,0,0,1-.59,1.423h-.833v5.833A1.669,1.669,0,0,1,39,80.333ZM34,65.678h0l-5,5v7.988H39V70.678l-5-5Z" fill="#424344"/>
    <path id="Shape-2" data-name="Shape" d="M34,76.167a3.334,3.334,0,1,1,3.333-3.334A3.337,3.337,0,0,1,34,76.167Zm0-5a1.667,1.667,0,1,0,1.667,1.667A1.669,1.669,0,0,0,34,71.167Z" fill="#424344"/>
  </g>
</svg>
