<svg xmlns="http://www.w3.org/2000/svg" xmlns:xlink="http://www.w3.org/1999/xlink" width="20" height="20" viewBox="0 0 20 20">
  <defs>
    <clipPath id="clip-path">
      <rect id="Rectangle_2136" data-name="Rectangle 2136" width="13.677" height="13.677" fill="#424344"/>
    </clipPath>
  </defs>
  <g id="Group_4126" data-name="Group 4126" transform="translate(-27 -337)">
    <g id="Group_4124" data-name="Group 4124" transform="translate(30 340)">
      <g id="Group_4123" data-name="Group 4123" transform="translate(0 0)" clip-path="url(#clip-path)">
        <path id="Path_8522" data-name="Path 8522" d="M4.586,0H1.811A1.814,1.814,0,0,0,0,1.811V4.587A1.814,1.814,0,0,0,1.811,6.4H4.586A1.815,1.815,0,0,0,6.4,4.587V1.811A1.815,1.815,0,0,0,4.586,0M5.41,4.586a.823.823,0,0,1-.823.823H1.811a.821.821,0,0,1-.823-.823V1.811A.821.821,0,0,1,1.811.988H4.586a.823.823,0,0,1,.823.823ZM4.586,7.279H1.811A1.813,1.813,0,0,0,0,9.091v2.775a1.814,1.814,0,0,0,1.811,1.811H4.586A1.815,1.815,0,0,0,6.4,11.866V9.091A1.814,1.814,0,0,0,4.586,7.279m.823,4.586a.823.823,0,0,1-.823.823H1.811a.821.821,0,0,1-.823-.823V9.09a.821.821,0,0,1,.823-.823H4.586a.823.823,0,0,1,.823.823Zm6.456-4.586H9.09A1.813,1.813,0,0,0,7.279,9.091v2.775A1.814,1.814,0,0,0,9.09,13.677h2.775a1.813,1.813,0,0,0,1.811-1.811V9.091a1.812,1.812,0,0,0-1.811-1.811Zm.823,4.586a.823.823,0,0,1-.823.823H9.09a.824.824,0,0,1-.823-.823V9.09a.824.824,0,0,1,.823-.823h2.775a.823.823,0,0,1,.823.823ZM8.172,2.844l.02.813c-.182.043-.356.435-.412.622l.5.82c.194.036.619.059.741-.082l.715.392c-.053.178.2.524.333.665l.958-.023c.128-.145.362-.5.3-.679l.7-.425c.125.135.55.092.741.046l.461-.843c-.062-.185-.256-.566-.441-.6l-.017-.813c.182-.043.356-.435.412-.619l-.5-.82c-.192-.04-.62-.062-.738.079L11.222.987c.055-.178-.194-.524-.33-.665L9.93.345c-.125.145-.362.5-.3.679l-.695.425c-.128-.135-.553-.092-.741-.046l-.461.843C7.8,2.429,7.991,2.812,8.172,2.844Zm1.554-.056h0a.856.856,0,1,1-.068.651A.854.854,0,0,1,9.726,2.788Z" transform="translate(0 0)" fill="#424344"/>
      </g>
    </g>
    <rect id="Background" width="20" height="20" transform="translate(27 337)" fill="none"/>
  </g>
</svg>
