<svg xmlns="http://www.w3.org/2000/svg" xmlns:xlink="http://www.w3.org/1999/xlink" width="20" height="20" viewBox="0 0 20 20">
  <defs>
    <clipPath id="clip-path">
      <rect id="Rectangle_2132" data-name="Rectangle 2132" width="15.207" height="13.204" fill="#424344"/>
    </clipPath>
  </defs>
  <g id="Group_4125" data-name="Group 4125" transform="translate(-27 -298)">
    <g id="Group_4116" data-name="Group 4116" transform="translate(30 301)">
      <g id="Group_4115" data-name="Group 4115" transform="translate(0 0)" clip-path="url(#clip-path)">
        <path id="Path_8516" data-name="Path 8516" d="M1.076,13.2A1.078,1.078,0,0,1,0,12.127V5.294A1.077,1.077,0,0,1,1.076,4.218H2.293l1.23-3.5A1.077,1.077,0,0,1,4.9.061l9.592,3.372a1.062,1.062,0,0,1,.613.549,1.073,1.073,0,0,1,.046.823L12.88,11.252a1.076,1.076,0,0,1-.561.618v.257A1.077,1.077,0,0,1,11.243,13.2ZM.994,12.127a.082.082,0,0,0,.082.081H11.243a.082.082,0,0,0,.082-.081V8.274H.994ZM11.243,4.218a1.077,1.077,0,0,1,1.076,1.076V9.845l1.888-5.371-.05-.1L4.565,1l-.026,0a.082.082,0,0,0-.076.055L3.35,4.218Zm.082,2.408V5.294a.081.081,0,0,0-.082-.081H1.076a.081.081,0,0,0-.082.081V6.626Z" transform="translate(0 0)" fill="#424344"/>
        <path id="Path_8517" data-name="Path 8517" d="M2.6,13.825a.452.452,0,0,1,0-.9H4.068a.452.452,0,0,1,0,.9Z" transform="translate(-0.426 -2.562)" fill="#424344"/>
        <path id="Path_8518" data-name="Path 8518" d="M6.294,13.825a.452.452,0,0,1,0-.9H8.182a.452.452,0,0,1,0,.9Z" transform="translate(-1.158 -2.562)" fill="#424344"/>
      </g>
    </g>
    <rect id="Background" width="20" height="20" transform="translate(27 298)" fill="none"/>
  </g>
</svg>
