<svg xmlns="http://www.w3.org/2000/svg" width="20" height="20" viewBox="0 0 20 20">
  <g id="Group_4111" data-name="Group 4111" transform="translate(-26 -211)">
    <g id="Group_4108" data-name="Group 4108" transform="translate(-152.852 102.146)">
      <path id="Path_8510" data-name="Path 8510" d="M407.369,191.084a.685.685,0,1,1-.685-.685.686.686,0,0,1,.685.685" transform="translate(-214.861 -75.202)" fill="#424344"/>
      <path id="Path_8511" data-name="Path 8511" d="M195.706,113.827A1.828,1.828,0,0,0,193.878,112h-4.836a1.827,1.827,0,0,0-1.293.535l-5.348,5.35a1.371,1.371,0,0,0,0,1.94l5.483,5.483h0a1.371,1.371,0,0,0,1.94,0l5.348-5.35a1.827,1.827,0,0,0,.535-1.293Zm-6.854,10.509-5.483-5.483,1.572-1.572,5.483,5.483Zm5.483-5.673a.457.457,0,0,1-.135.322l-2.808,2.81-5.483-5.483,2.808-2.808a.457.457,0,0,1,.324-.135h4.836a.456.456,0,0,1,.457.457Z" fill="#424344"/>
    </g>
    <rect id="Background" width="20" height="20" transform="translate(26 211)" fill="none"/>
  </g>
</svg>
