<svg xmlns="http://www.w3.org/2000/svg" xmlns:xlink="http://www.w3.org/1999/xlink" width="20" height="20" viewBox="0 0 20 20">
  <defs>
    <clipPath id="clip-path">
      <rect id="Rectangle_2135" data-name="Rectangle 2135" width="14.258" height="12.861" transform="translate(0 0)" fill="#fff"/>
    </clipPath>
  </defs>
  <g id="Group_4112" data-name="Group 4112" transform="translate(-29 -257)">
    <rect id="Background" width="20" height="20" transform="translate(29 257)" fill="none"/>
    <g id="Group_4121" data-name="Group 4121" transform="translate(32 261)">
      <g id="Group_4120" data-name="Group 4120" clip-path="url(#clip-path)">
        <path id="Path_8521" data-name="Path 8521" d="M6.682,12.861l-.075,0a1.225,1.225,0,0,1-.378-.083L3.088,11.552l-.047-.02a1.459,1.459,0,0,1-1-1.677V8.292l-.427-.129-.008,0C.539,7.826,0,7.281,0,6.542V4.383c0-1.02,1.044-1.348,1.6-1.525l.013,0L11.22.038a.712.712,0,0,1,.1-.021A1.619,1.619,0,0,1,11.552,0a1.735,1.735,0,0,1,1.679,1.55.713.713,0,0,1,.009.112v7.7q0,.031,0,.063a1.623,1.623,0,0,1-1.586,1.529,1.528,1.528,0,0,1-.157-.008h-.012a1.633,1.633,0,0,1-.262-.053L7.97,9.938v1.61q0,.018,0,.037A1.315,1.315,0,0,1,6.682,12.861ZM3.63,10.232l2.912,1.134V8.986A.713.713,0,0,1,7.457,8.3l4.165,1.22.025.005c.067,0,.147-.08.166-.2V1.714a.314.314,0,0,0-.257-.287L2.025,4.222a3.375,3.375,0,0,0-.6.233V6.509a1.5,1.5,0,0,0,.6.289l.931.281a.714.714,0,0,1,.507.683V9.855c0,.1,0,.218,0,.295C3.5,10.169,3.554,10.2,3.63,10.232Z" fill="#fff"/>
        <path id="Line_9" data-name="Line 9" d="M4.5,1.938a.714.714,0,0,1-.188-.025L-.187.689a.714.714,0,0,1-.5-.876.714.714,0,0,1,.876-.5L4.69.535a.714.714,0,0,1-.187,1.4Z" transform="translate(2.753 7.762)" fill="#fff"/>
      </g>
    </g>
  </g>
</svg>
