<svg xmlns="http://www.w3.org/2000/svg" xmlns:xlink="http://www.w3.org/1999/xlink" width="201.871" height="33.916" viewBox="0 0 201.871 33.916">
  <defs>
    <clipPath id="clip-path">
      <rect id="Rectangle_161" data-name="Rectangle 161" width="145.462" height="14.345" fill="#7d26cd"/>
    </clipPath>
    <clipPath id="clip-path-2">
      <rect id="Rectangle_2" data-name="Rectangle 2" width="50.064" height="33.916" fill="none"/>
    </clipPath>
  </defs>
  <g id="Group_4095" data-name="Group 4095" transform="translate(-60.544 -474.295)">
    <g id="Group_3516" data-name="Group 3516" transform="translate(116.953 484.328)">
      <path id="Path_7318" data-name="Path 7318" d="M0,.79V14.8H2.952V9.2H7.38V6.4H2.952V3.586h5.9V.79Z" transform="translate(0 -0.539)" fill="#ee5007"/>
      <rect id="Rectangle_160" data-name="Rectangle 160" width="2.952" height="13.954" transform="translate(11.061 0.286)" fill="#ee5007"/>
      <path id="Path_7319" data-name="Path 7319" d="M59.438.9,56.924,5.046,54.418.9H51.029L55.22,7.868l-4.191,6.977,3.389.009,2.506-4.164,2.515,4.164h3.389L58.618,7.868,62.828.9Z" transform="translate(-34.808 -0.614)" fill="#ee5007"/>
      <g id="Group_3515" data-name="Group 3515" transform="translate(0 0)">
        <g id="Group_3514" data-name="Group 3514" clip-path="url(#clip-path)">
          <path id="Path_7320" data-name="Path 7320" d="M96.536,14.706a7.423,7.423,0,0,1-5.257-2.061,6.654,6.654,0,0,1-2.187-5A6.7,6.7,0,0,1,91.279,2.63,7.367,7.367,0,0,1,96.536.543l-.009.035a7.788,7.788,0,0,1,5.284,2.069l-2.1,2A4.467,4.467,0,0,0,96.545,3.4a4.372,4.372,0,0,0-3.152,1.246,4.092,4.092,0,0,0,0,6.007,4.643,4.643,0,0,0,6.323-.008l2.1,2a7.614,7.614,0,0,1-5.285,2.061" transform="translate(-60.772 -0.37)" fill="#7d26cd"/>
          <path id="Path_7321" data-name="Path 7321" d="M140.13,0l6.706,14.24h-3.2l-.993-2.121h-5.03l-.993,2.121h-3.189Zm1.348,9.643-1.34-2.952-1.358,2.952Z" transform="translate(-91.018 0)" fill="#7d26cd"/>
          <path id="Path_7322" data-name="Path 7322" d="M182.531.9h4.792a5.549,5.549,0,0,1,3.845,1.419,3.85,3.85,0,0,1,1.421,3.169V5.85a4.366,4.366,0,0,1-.929,2.657A3.325,3.325,0,0,1,189.9,9.8l3.417,5.056H189.71l-4.218-6.172v6.172H182.54Zm7.016,4.675a1.837,1.837,0,0,0-.583-1.342,2.847,2.847,0,0,0-1.822-.554h-1.659V7.529h1.139v.009h.984a1.964,1.964,0,0,0,1.941-1.965" transform="translate(-124.51 -0.613)" fill="#7d26cd"/>
          <path id="Path_7323" data-name="Path 7323" d="M226.3,11.843a1.685,1.685,0,0,0,1.715-1.418c0-1.274-1.8-1.452-2.815-1.786-1.791-.579-3.372-1.976-3.372-3.877a4.5,4.5,0,0,1,8.919-.588l-2.931.588a1.492,1.492,0,0,0-2.98.009c0,1.257,1.675,1.592,2.695,1.879,1.854.508,3.488,1.85,3.488,3.793a4.566,4.566,0,0,1-4.7,4.253,4.663,4.663,0,0,1-4.66-3.66l2.932-.593a1.673,1.673,0,0,0,1.719,1.413Z" transform="translate(-151.202 -0.35)" fill="#7d26cd"/>
          <path id="Path_7324" data-name="Path 7324" d="M260.975.9V6.483h4.911V.9h2.943V14.854h-2.943V9.261h-4.911v5.592h-2.943V.9Z" transform="translate(-176.011 -0.613)" fill="#7d26cd"/>
          <path id="Path_7325" data-name="Path 7325" d="M305.629,0l6.706,14.24h-3.2l-.993-2.121h-5.03l-.993,2.121h-3.189Zm1.348,9.643-1.34-2.952-1.358,2.952Z" transform="translate(-203.91 0)" fill="#7d26cd"/>
          <path id="Path_7326" data-name="Path 7326" d="M348.031.9h4.793a5.55,5.55,0,0,1,3.845,1.419,3.85,3.85,0,0,1,1.421,3.169V5.85a4.368,4.368,0,0,1-.929,2.657A3.325,3.325,0,0,1,355.4,9.8l3.417,5.056h-3.608l-4.218-6.172v6.172H348.04Zm7.016,4.675a1.837,1.837,0,0,0-.583-1.342,2.848,2.848,0,0,0-1.822-.554h-1.658V7.529h1.139v.009h.984a1.964,1.964,0,0,0,1.941-1.965" transform="translate(-237.402 -0.613)" fill="#7d26cd"/>
          <path id="Path_7327" data-name="Path 7327" d="M397.732.791v2.8h-5.9V6.4h4.428V9.2h-4.428V12.01h5.9V14.8h-8.856V.791Z" transform="translate(-265.263 -0.539)" fill="#7d26cd"/>
          <path id="Path_7328" data-name="Path 7328" d="M423.673.9h4.793a5.55,5.55,0,0,1,3.845,1.419,3.85,3.85,0,0,1,1.421,3.169V5.85a4.368,4.368,0,0,1-.929,2.657,3.325,3.325,0,0,1-1.758,1.29l3.417,5.056h-3.608l-4.218-6.172v6.172h-2.952Zm7.016,4.675a1.837,1.837,0,0,0-.583-1.342,2.848,2.848,0,0,0-1.822-.554h-1.658V7.529h1.139v.009h.984a1.964,1.964,0,0,0,1.941-1.965" transform="translate(-288.999 -0.613)" fill="#7d26cd"/>
        </g>
      </g>
    </g>
    <g id="Group_2" data-name="Group 2" transform="translate(60.544 474.295)">
      <g id="Group_1" data-name="Group 1" clip-path="url(#clip-path-2)">
        <path id="Path_1" data-name="Path 1" d="M285,87.1h0a2.977,2.977,0,0,1-2.977-2.977V61.218a2.977,2.977,0,1,1,5.954,0V84.124A2.977,2.977,0,0,1,285,87.1" transform="translate(-257.534 -53.184)" fill="#7d26cd"/>
        <path id="Path_2" data-name="Path 2" d="M294.027,13.162h0a7.208,7.208,0,0,0,7.208,7.208h3.388a2.977,2.977,0,1,1,0,5.954h-9.588a4.879,4.879,0,0,1-4.879-4.879V6.548a3.61,3.61,0,0,0-3.61-3.61H283.49a1.469,1.469,0,1,1,0-2.938h21.132a2.977,2.977,0,1,1,0,5.954h-3.388a7.208,7.208,0,0,0-7.208,7.208" transform="translate(-257.535 0)" fill="#ee5007"/>
        <path id="Path_3" data-name="Path 3" d="M116.43,288.68h9.178a1.792,1.792,0,0,0,0-3.584H116.43a1.792,1.792,0,0,0,0,3.584" transform="translate(-104.685 -260.343)" fill="#ee5007"/>
        <path id="Path_4" data-name="Path 4" d="M70.368,91.771H83.546a1.792,1.792,0,0,0,0-3.584H70.368a1.792,1.792,0,0,0,0,3.584" transform="translate(-62.622 -80.53)" fill="#ee5007"/>
        <path id="Path_5" data-name="Path 5" d="M1.792,190.225H20.924a1.792,1.792,0,0,0,0-3.584H1.792a1.792,1.792,0,0,0,0,3.584" transform="translate(0 -170.436)" fill="#ee5007"/>
      </g>
    </g>
  </g>
</svg>
