<svg width="160" height="160" viewBox="0 0 160 160" xmlns="http://www.w3.org/2000/svg" xmlns:xlink="http://www.w3.org/1999/xlink">
    <defs>
        <path id="mjfghinbca" d="M0 0h156.427v62.927H0z"/>
        <path d="M0 72.325c0 39.936 31.986 72.325 71.434 72.325 39.449 0 71.443-32.376 71.443-72.325C142.877 32.377 110.883 0 71.434 0 31.986 0 0 32.389 0 72.325z" id="dd2x06i45c"/>
        <path d="M0 72.325c0 39.936 31.986 72.325 71.434 72.325 39.449 0 71.443-32.376 71.443-72.325C142.877 32.377 110.883 0 71.434 0 31.986 0 0 32.389 0 72.325" id="2aqqybatne"/>
        <path d="M0 72.309c0 39.935 31.984 72.309 71.439 72.309 39.454 0 71.438-32.374 71.438-72.31C142.877 32.375 110.893 0 71.44 0 31.984 0 0 32.374 0 72.309z" id="xyplwaf6sg"/>
        <path d="M0 72.309c0 39.935 31.984 72.309 71.439 72.309 39.454 0 71.438-32.374 71.438-72.31C142.877 32.375 110.893 0 71.44 0 31.984 0 0 32.374 0 72.309z" id="k1ozx6d8ki"/>
        <path d="M0 72.309c0 39.935 31.984 72.309 71.439 72.309 39.454 0 71.438-32.374 71.438-72.31C142.877 32.375 110.893 0 71.44 0 31.984 0 0 32.374 0 72.309z" id="aehg51pvtk"/>
    </defs>
    <g fill="none" fill-rule="evenodd">
        <path d="M80 .036c44.183 0 80 35.802 80 79.966 0 44.164-35.817 79.966-80 79.966S0 124.166 0 80.002C0 35.838 35.817.036 80 .036" fill="#0A5272"/>
        <path d="M158.112 62.49C150.125 26.728 118.187 0 80 0S9.875 26.728 1.884 62.49h156.228z" fill="#0A5272"/>
        <g transform="translate(1.787 97.073)">
            <mask id="0xrgtdr9zb" fill="#fff">
                <use xlink:href="#mjfghinbca"/>
            </mask>
            <path d="M0 0c7.826 35.98 39.869 62.93 78.213 62.93 38.345 0 70.372-26.95 78.214-62.93H0z" fill="#0A5272" mask="url(#0xrgtdr9zb)"/>
        </g>
        <path d="M79.996 7.677c-39.448 0-71.435 32.389-71.435 72.325s31.987 72.325 71.435 72.325c39.448 0 71.443-32.376 71.443-72.325 0-39.948-31.995-72.325-71.443-72.325" fill="#FFF"/>
        <g transform="translate(8.561 7.677)">
            <mask id="acaaskqxod" fill="#fff">
                <use xlink:href="#dd2x06i45c"/>
            </mask>
            <path d="M157.692 50.373s.028-19.673-.049-23.613h-2.283c-.736 0-1.476-.024-2.175-.036a2.16 2.16 0 0 1-.077-.34v-1.458c0-1.366 0-1.366-.554-2.34-.024-.044-.085-.068-.137-.105-.122.404-.303.703-.809.404-.044-.339-.089-.686-.133-1.038h-.133c-.029.343-.061.69-.106 1.188l-.367-.808-.465.925c-.11-.602-.174-.97-.259-1.426-.808 1.673-.445 3.357-.622 5.026h-4.2c-1.37 0-2.717-.024-4.148.024v15.799l-5.024 1.135c-.045-.67-.077-1.244-.113-1.798-1.213-.19-7.89-.153-8.724.053l-.097 3.483-9.527 1.616.182-3.592h-2.915c-.188.04-.367.117-.525.226-.146.069-.283.21-.425.214h-2.66v-9.721c-1.313-.222-8.597-.174-9.381.072v7.677l-2.022.114v2.796h-3.597c-.11-3.047-.214-6.02-.324-9.043h-1.325c-.114 3.055-.223 6.06-.332 9.055h-1.184v-2.069h-1.876V30.688c.04-1.014.016-2.029-.073-3.039h-1.358a2.263 2.263 0 0 1-.901-.097 1.367 1.367 0 0 0-1.447 0c-.154.09-.59.028-.619-.06-.295-.873-.958-.667-1.58-.623-.162 0-.405.049-.477-.04-.465-.428-.922-.311-1.42-.089a1.684 1.684 0 0 1-.61 0c-.048-.347-.088-.642-.133-.95h-1.762l-.11 1.835h-3.14v2.303l-.809.404V50.91a38.615 38.615 0 0 1-3.682.033v-5.188l-2.167-.122V28.154c0-.404.134-.832-.178-1.212l-1.03-.093c-.081-.29-.15-.545-.247-.905H66.79c-.065-.517-.113-.917-.166-1.362h-1.318c-.076.497-.141.918-.218 1.443l-.86-.776-.627.404c-.049-.432-.085-.763-.122-1.111h-1.342c-.06.404-.109.731-.173 1.172H59.49c-.045.428-.073.735-.11 1.075l-.808.258v1.269c0 .202.024.521-.085.586-.541.34-.36.856-.36 1.305v19.5c0 .367-.02.73-.036 1.18l-1.18-.187v-5.818l-.809-.303v-2.554l-1.993-.109v-3.794h-8.323v11.98l-1.022-.044v-7.196s-2.106-.291-2.77.262c-.32.193-.717.207-1.05.037-.534-.61-2.583-.44-2.583-.44v4.71l-.61.025v-.667h-5.854l.166.691h-2.882c-.06.356-.105.622-.158.962l-.938-.239v-9.01c0-.133 0-.323.077-.404.603-.546.324-1.168.243-1.83H23.21c-.857 0-1.718.032-2.575 0-.857-.033-1.75-.19-2.632-.235a28.801 28.801 0 0 0-2.575 0c-.857.032-1.693-.15-2.563.138.04.404-.141.751.348 1.103.408.345.64.855.63 1.39-.024 2.02 0 4.04 0 6.06a5.17 5.17 0 0 1-.08.574l-5.906-1.168V34.627c0-3.37.036-6.703-.036-10.162-.457.178-.776.295-1.088.404-1.617.675-3.233 1.346-4.85 2.02a3.888 3.888 0 0 1-2.83.15c-2.082-.72-4.099-1.677-6.124-2.541v24.457s-.582 62.595 0 62.757c6.714 1.826 164.669 0 164.669 0l.093-61.339z" fill="#D5EEF4" mask="url(#acaaskqxod)"/>
        </g>
        <g transform="translate(8.561 7.677)">
            <mask id="r98pfeghbf" fill="#fff">
                <use xlink:href="#2aqqybatne"/>
            </mask>
            <path d="M72.813 96.754c41.173 0 74.551 11.377 74.551 25.41 0 14.035-33.378 25.411-74.551 25.411-41.174 0-74.551-11.376-74.551-25.41s33.377-25.411 74.55-25.411" fill="#D5EEF4" mask="url(#r98pfeghbf)"/>
        </g>
        <g>
            <path d="M52.412 110.237a.645.645 0 0 1 .372-.157c.137-.005.273-.03.404-.073a4.51 4.51 0 0 1 .91-.32c.435-.127.845-.33 1.212-.597a.437.437 0 0 0 .222-.425 6.83 6.83 0 0 1 .093-1.28c.053-.376.101-.756.154-1.136.006-.06.015-.122.028-.182a.118.118 0 0 1 .057-.06c.03-.007.06.002.08.024.162.202.32.404.478.614.521.683 1.014 1.386 1.576 2.02.13.175.342.268.558.247.106-.013.211-.032.315-.057l.89-.238v.02l1.067-.283a.24.24 0 0 1 .093 0 .304.304 0 0 1-.02.073c-.32.404-.64.784-.955 1.18-.135.164-.257.34-.363.525-.295.542-.295.546-.101 1.123.051.176.124.344.218.501.307.549.643 1.08 1.006 1.592.11.146.202.303.3.457a.088.088 0 0 1 0 .085.167.167 0 0 1-.114.024.971.971 0 0 1-.21-.089c-.32-.182-.635-.372-.954-.557-.08-.045-.153-.102-.234-.138-.405-.186-.809-.36-1.213-.541-.22-.07-.454-.08-.68-.029a.253.253 0 0 0-.145.101 6.95 6.95 0 0 0-.335.437c-.404.537-.76 1.079-1.152 1.616-.134.164-.277.32-.429.469a1.58 1.58 0 0 1-.068-.614c-.025-.303-.09-.61-.085-.914 0-.52-.146-1.026-.138-1.547 0-.04-.02-.11-.044-.117-.214-.06-.34-.25-.526-.36a4.688 4.688 0 0 0-1.616-.61 1.116 1.116 0 0 1-.712-.46.25.25 0 0 1 .053-.324h.008zm-1.48.311c.05.114.133.21.239.275.752.446 1.532.843 2.336 1.188.198.08.404.15.602.226.085.033.168.073.247.117.071.038.116.11.117.19v.78c0 .84.04 1.68.122 2.517.024.243.028.49.048.732.01.091.028.182.053.27a.121.121 0 0 0 .137.093c.06 0 .117-.032.178-.036a.642.642 0 0 0 .457-.275c.177-.23.367-.448.553-.675a18.266 18.266 0 0 0 1.956-2.247.137.137 0 0 1 .195-.048c.578.243 1.136.526 1.73.736.202.072.38.202.574.29.279.13.558.251.845.36.13.043.267.068.404.073a.404.404 0 0 0 .404-.331.685.685 0 0 0 0-.182c0-.138-.056-.27-.089-.44a7.328 7.328 0 0 0-.752-1.58c-.288-.47-.538-.962-.747-1.471a.52.52 0 0 1 .064-.558c.318-.487.66-.958 1.027-1.41.255-.283.465-.606.695-.913a.755.755 0 0 0 .142-.606.25.25 0 0 0-.214-.214 1.211 1.211 0 0 0-.453.024c-.554.117-1.108.246-1.666.343-.452.081-.91.122-1.366.174a.255.255 0 0 1-.242-.097c-.19-.242-.38-.48-.562-.727a298.57 298.57 0 0 1-1.213-1.669c-.25-.351-.558-.65-.837-.974a.74.74 0 0 0-.1-.097.3.3 0 0 0-.405.057c-.07.1-.122.213-.154.331-.186.93-.367 1.86-.545 2.792a4.89 4.89 0 0 1-.28 1.067.477.477 0 0 1-.359.315 2.781 2.781 0 0 0-.86.307 1.27 1.27 0 0 1-.304.097c-.091.017-.18.046-.263.085a3.832 3.832 0 0 1-.901.331c-.232.079-.459.17-.68.275a.356.356 0 0 0-.133.505z" fill="#EDC51B"/>
            <path d="M52.36 110.572c.167.242.422.407.71.461.573.102 1.121.309 1.617.61.186.11.312.3.526.36.024 0 .044.077.044.117 0 .521.138 1.026.138 1.548 0 .303.06.61.085.913a1.58 1.58 0 0 0 .068.614c.152-.148.295-.305.429-.469.404-.53.768-1.07 1.152-1.616a6.95 6.95 0 0 1 .336-.436.255.255 0 0 1 .145-.101c.225-.052.46-.042.68.028.403.182.808.355 1.212.541.08.037.153.093.234.138.32.185.635.375.954.557a.952.952 0 0 0 .21.09c.04.005.08-.004.114-.025a.088.088 0 0 0 0-.085c-.097-.154-.19-.311-.3-.457-.363-.512-.7-1.043-1.006-1.592a2.2 2.2 0 0 1-.218-.5c-.194-.578-.194-.582.1-1.124.107-.185.229-.36.365-.525.315-.404.634-.784.953-1.18a.304.304 0 0 0 .02-.073.24.24 0 0 0-.092 0l-1.067.283v-.02l-.89.238a2.684 2.684 0 0 1-.315.057.618.618 0 0 1-.558-.247c-.562-.65-1.055-1.353-1.576-2.02-.158-.206-.316-.404-.477-.614a.085.085 0 0 0-.081-.024.118.118 0 0 0-.057.06c-.013.06-.022.121-.028.182-.053.38-.101.76-.154 1.136a6.832 6.832 0 0 0-.093 1.28.437.437 0 0 1-.222.425c-.367.267-.777.47-1.213.598a4.51 4.51 0 0 0-.91.319c-.13.044-.266.068-.403.073a.645.645 0 0 0-.372.157.25.25 0 0 0-.06.323M108.417 110.572a1.116 1.116 0 0 1-.711.461c-.572.103-1.12.31-1.617.61-.182.11-.308.3-.522.36-.024 0-.044.077-.044.117 0 .521-.138 1.026-.138 1.548 0 .303-.06.61-.085.913a1.58 1.58 0 0 1-.068.614 5.877 5.877 0 0 1-.429-.469c-.404-.53-.768-1.07-1.152-1.616a6.95 6.95 0 0 0-.335-.436.255.255 0 0 0-.146-.101 1.292 1.292 0 0 0-.679.028c-.404.182-.808.355-1.213.541-.08.037-.153.093-.234.138-.32.185-.635.375-.954.557a1.045 1.045 0 0 1-.21.09.166.166 0 0 1-.113-.025.1.1 0 0 1 0-.085c.1-.154.194-.311.303-.457.364-.512.7-1.043 1.006-1.592a2.2 2.2 0 0 0 .219-.5c.194-.578.194-.582-.102-1.124a3.788 3.788 0 0 0-.363-.525c-.316-.404-.635-.784-.954-1.18 0 0 0-.048-.02-.073a.24.24 0 0 1 .092 0l1.064.283v-.02l.889.238c.104.025.209.044.315.057a.618.618 0 0 0 .558-.247c.562-.65 1.055-1.353 1.576-2.02.158-.206.316-.404.477-.614a.085.085 0 0 1 .081-.024.118.118 0 0 1 .057.06c.013.06.023.121.028.182.053.38.101.76.154 1.136.07.423.1.852.089 1.28a.444.444 0 0 0 .226.425c.367.267.777.47 1.213.598.313.073.618.18.91.319.13.044.266.068.403.073a.645.645 0 0 1 .372.157c.094.08.118.216.057.323m1.27-.529a6.295 6.295 0 0 0-.68-.275 3.773 3.773 0 0 1-.901-.33 1.057 1.057 0 0 0-.263-.086 1.27 1.27 0 0 1-.303-.097 2.781 2.781 0 0 0-.861-.307.477.477 0 0 1-.36-.315 4.89 4.89 0 0 1-.279-1.067 284.43 284.43 0 0 0-.546-2.792 1.037 1.037 0 0 0-.153-.331.3.3 0 0 0-.404-.057.74.74 0 0 0-.101.097c-.28.324-.587.623-.837.974-.404.562-.809 1.115-1.213 1.669-.182.246-.376.485-.562.727a.255.255 0 0 1-.242.097c-.457-.052-.914-.093-1.367-.174-.557-.097-1.111-.226-1.665-.343a1.211 1.211 0 0 0-.453-.024.25.25 0 0 0-.214.214.744.744 0 0 0 .142.606c.23.307.44.63.695.913.365.453.708.923 1.027 1.41a.52.52 0 0 1 .064.558c-.21.51-.46 1.001-.748 1.47a7.309 7.309 0 0 0-.751 1.58c-.033.17-.07.303-.09.44a.685.685 0 0 0 0 .183.404.404 0 0 0 .405.331 1.48 1.48 0 0 0 .404-.073c.287-.109.566-.23.845-.36.194-.088.372-.218.574-.29.594-.21 1.152-.493 1.73-.736a.138.138 0 0 1 .19.042l.004.007c.58.788 1.224 1.529 1.924 2.214l.032.032c.186.227.376.445.554.675a.642.642 0 0 0 .457.275c.06 0 .117.028.178.036.063.01.123-.03.137-.093.025-.088.043-.179.053-.27 0-.243.024-.49.048-.732a28.06 28.06 0 0 0 .122-2.517v-.78a.218.218 0 0 1 .117-.19c.08-.044.162-.084.246-.117.203-.077.405-.145.603-.226a20.167 20.167 0 0 0 2.336-1.188.632.632 0 0 0 .239-.275.356.356 0 0 0-.134-.505" fill="#EDC51B"/>
            <path d="M108.417 110.572a1.116 1.116 0 0 1-.711.461c-.572.103-1.12.31-1.617.61-.182.11-.308.3-.522.36-.024 0-.044.077-.044.117 0 .521-.138 1.026-.138 1.548 0 .303-.06.61-.085.913a1.58 1.58 0 0 1-.068.614 5.877 5.877 0 0 1-.429-.469c-.404-.53-.768-1.07-1.152-1.616a6.95 6.95 0 0 0-.335-.436.255.255 0 0 0-.146-.101 1.292 1.292 0 0 0-.679.028c-.404.182-.808.355-1.213.541-.08.037-.153.093-.234.138-.32.185-.635.375-.954.557a1.045 1.045 0 0 1-.21.09.166.166 0 0 1-.113-.025.1.1 0 0 1 0-.085c.1-.154.194-.311.303-.457.364-.512.7-1.043 1.006-1.592a2.2 2.2 0 0 0 .219-.5c.194-.578.194-.582-.102-1.124a3.788 3.788 0 0 0-.363-.525c-.316-.404-.635-.784-.954-1.18 0 0 0-.048-.02-.073a.24.24 0 0 1 .092 0l1.064.283v-.02l.889.238c.104.025.209.044.315.057a.618.618 0 0 0 .558-.247c.562-.65 1.055-1.353 1.576-2.02.158-.206.316-.404.477-.614a.085.085 0 0 1 .081-.024.118.118 0 0 1 .057.06c.013.06.023.121.028.182.053.38.101.76.154 1.136.07.423.1.852.089 1.28a.444.444 0 0 0 .226.425c.367.267.777.47 1.213.598.313.073.618.18.91.319.13.044.266.068.403.073a.645.645 0 0 1 .372.157c.094.08.118.216.057.323M75.299 116.257a.62.62 0 0 1 .404-.056c.132.031.269.044.404.036.316-.06.637-.085.958-.072.46-.009.916-.096 1.346-.259a.449.449 0 0 0 .328-.352c.094-.416.23-.822.404-1.212.15-.351.295-.707.44-1.058.025-.057.05-.113.077-.166a.102.102 0 0 1 .073-.044c.03 0 .056.018.069.044.105.238.206.477.303.72.328.807.619 1.615.99 2.371.08.204.262.35.477.384.106.018.213.027.32.028h.917v.024h1.104a.33.33 0 0 1 .089.029c0 .024 0 .052-.04.064-.405.3-.81.59-1.213.893-.174.12-.338.256-.49.404-.428.445-.404.449-.404 1.059.007.183.034.364.081.541.155.607.342 1.206.558 1.794.068.172.126.347.174.526 0 0 0 .072-.024.076a.138.138 0 0 1-.114 0 .754.754 0 0 1-.181-.141l-.777-.784c-.064-.065-.12-.137-.19-.198-.343-.279-.69-.553-1.03-.836a1.283 1.283 0 0 0-.647-.202.257.257 0 0 0-.17.06c-.15.105-.295.218-.436.336-.51.404-1.015.84-1.532 1.252a6.07 6.07 0 0 1-.534.34c-.01-.208.022-.415.093-.61.057-.304.073-.61.154-.906.137-.5.129-1.03.274-1.53v-.122c-.194-.117-.266-.331-.404-.485a4.83 4.83 0 0 0-1.406-1.014 1.099 1.099 0 0 1-.558-.622.255.255 0 0 1 .113-.312zm-1.508-.084a.57.57 0 0 0 .158.327c.609.626 1.259 1.212 1.944 1.753.17.13.352.247.522.376.075.053.145.113.21.178.057.054.08.134.06.21-.06.255-.117.505-.186.76a26.895 26.895 0 0 0-.533 2.46c-.045.243-.101.481-.146.72a1.56 1.56 0 0 0 0 .274.117.117 0 0 0 .11.126h.181a.623.623 0 0 0 .51-.15c.234-.174.473-.335.711-.5l.04-.03a17.922 17.922 0 0 0 2.426-1.615.138.138 0 0 1 .194-.004l.004.004c.497.383.962.808 1.483 1.163.174.122.312.291.477.429.235.194.473.404.724.565.115.074.238.134.368.178a.404.404 0 0 0 .493-.214.682.682 0 0 0 .06-.174c0-.137 0-.275.025-.444a7.278 7.278 0 0 0-.311-1.726c-.156-.528-.27-1.069-.34-1.616a.533.533 0 0 1 .206-.53c.457-.359.865-.77 1.358-1.09.324-.206.61-.465.91-.699a.768.768 0 0 0 .295-.554.25.25 0 0 0-.15-.258 1.212 1.212 0 0 0-.444-.097c-.566-.028-1.136-.049-1.698-.097-.457-.04-.91-.121-1.362-.19a.247.247 0 0 1-.21-.158c-.118-.282-.243-.561-.352-.848-.25-.639-.505-1.281-.744-1.927-.15-.404-.368-.772-.554-1.16a.717.717 0 0 0-.072-.117.299.299 0 0 0-.405-.053c-.093.08-.172.174-.234.279-.423.849-.84 1.701-1.253 2.558-.148.336-.33.655-.546.953a.498.498 0 0 1-.428.214 2.78 2.78 0 0 0-.914.07 1.207 1.207 0 0 1-.32 0 1.043 1.043 0 0 0-.274 0 3.638 3.638 0 0 1-.958.088 5.581 5.581 0 0 0-.728.089.351.351 0 0 0-.307.477z" fill="#EDC51B"/>
            <path d="M75.186 116.569a1.1 1.1 0 0 0 .57.626 4.83 4.83 0 0 1 1.406 1.014c.15.154.223.368.405.485v.121c-.146.501-.138 1.03-.275 1.531-.081.295-.097.603-.154.906a1.567 1.567 0 0 0-.093.61 5.92 5.92 0 0 0 .534-.34c.517-.404 1.022-.836 1.532-1.252.141-.117.287-.23.436-.336a.259.259 0 0 1 .17-.06c.23.008.453.078.647.202.34.283.687.557 1.03.836.07.06.126.133.19.198l.777.784a.754.754 0 0 0 .182.141.138.138 0 0 0 .113 0s.032-.056.024-.076a4.728 4.728 0 0 0-.174-.526 18.417 18.417 0 0 1-.558-1.794 2.428 2.428 0 0 1-.08-.541c-.033-.61-.037-.614.404-1.059.15-.148.315-.283.489-.404.404-.303.808-.594 1.213-.893.02 0 .028-.04.04-.064a.33.33 0 0 0-.089-.029h-1.1v-.024h-.917a2.061 2.061 0 0 1-.32-.028.614.614 0 0 1-.476-.384c-.372-.772-.663-1.58-.99-2.372-.098-.242-.199-.48-.304-.719a.081.081 0 0 0-.069-.044.102.102 0 0 0-.072.044c-.029.053-.053.11-.077.166-.146.351-.291.707-.44 1.058-.175.39-.31.796-.405 1.212a.449.449 0 0 1-.327.352c-.43.163-.886.25-1.346.259a4.257 4.257 0 0 0-.959.072 1.417 1.417 0 0 1-.404-.036.62.62 0 0 0-.404.057.254.254 0 0 0-.13.307" fill="#EDC51B"/>
            <path d="M86.702 33.96c.226-.61.46-1.212.695-1.818.118-.157.037-.295-.157-.31-.259 0-.518-.037-.78-.05a.259.259 0 0 0-.271.223c-.097.485-.198.97-.287 1.454-.045.23-.057.465-.093.695a.921.921 0 0 0 .404.942c.04.03.089.041.137.032a.161.161 0 0 0 .085-.109c.026-.366.116-.724.267-1.059M97.822 32.17c-.024 0-.052-.024-.068 0a.442.442 0 0 0-.102.045.47.47 0 0 0 .102 0c.04.004.068-.028.068-.044" fill="#FFF"/>
            <path d="M97.669 32.199h-.045v.024h.02l.025-.024zM85.663 31.742a1.667 1.667 0 0 0-.311-.056c-.712-.025-.623-.122-.906.598-.032.105-.064.23-.105.355a.715.715 0 0 0 .093.675c.15.177.314.343.49.497 0 0 .096 0 .129-.028.04-.035.07-.08.085-.13a6.86 6.86 0 0 1 .659-1.592.243.243 0 0 0-.13-.317l-.004-.002M83.602 31.556a41.01 41.01 0 0 0-1.213-.117c-.04 0-.089.045-.13.073a.1.1 0 0 0 .029.056c.364.291.723.586 1.091.865.029 0 .146-.032.182-.077.05-.08.09-.164.117-.254.037-.101.065-.174.085-.25.029-.15-.028-.28-.161-.296M90.005 34.385c0 .731.125.674.667.456.17-.072.347-.117.521-.182 2.021-.808 4.042-1.616 6.136-2.254.11-.032.243-.057.283-.194a1.676 1.676 0 0 0-.287-.04h-2.518c-.655 0-1.31-.025-1.965-.033-.275 0-.267 0-.335.283-.116.428-.25.853-.405 1.273a.449.449 0 0 1-.513.27.46.46 0 0 1-.404-.436c-.007-.207.01-.415.052-.618.049-.23.146-.449.199-.679 0-.044-.073-.141-.13-.162a.868.868 0 0 0-.307-.036c-.315 0-.376.028-.465.307-.166.497-.323.998-.469 1.503-.04.178-.06.36-.06.542M104.443 33.306c-.21.105-.424.202-.63.32-1.37.775-2.737 1.559-4.103 2.339a3.606 3.606 0 0 0-.95.686 2.472 2.472 0 0 1-.63.465 22.752 22.752 0 0 0-2.988 1.9l-.13.092-2.493 1.649c-.186.12-.21.21-.093.383a13.655 13.655 0 0 0 1.904 2.3c.246.23.521.436.76.682a63.85 63.85 0 0 1 1.5 1.617c.201.218.298.218.488-.029.083-.102.156-.211.219-.327.29-.525.582-1.055.853-1.588.09-.248.249-.467.456-.63a1.96 1.96 0 0 0 .599-.715c.153-.243.299-.493.436-.744.53-.937 1.092-1.85 1.573-2.828.372-.748.78-1.483 1.212-2.198.63-1.023 1.31-2.02 1.969-3.03.052-.086.101-.178.137-.247.037-.069 0-.089-.024-.105s-.044 0-.065.008M96.808 36.086c1.617-.97 3.233-1.964 4.85-2.946.066-.043.127-.093.182-.15v-.064c0-.02-.036-.04-.048-.036l-1.148.27a32.246 32.246 0 0 0-4.164 1.156l-4.131 1.531c-.234.12-.487.196-.748.227a2.568 2.568 0 0 0-1.269.36 7.381 7.381 0 0 1-2.773.807.809.809 0 0 0-.602.328 2.671 2.671 0 0 0-.32.533c-.436 1.095-.86 2.198-1.273 3.26-.121.36-.23.684-.344 1.007-.044.121-.1.242-.133.367a.65.65 0 0 0 0 .198.46.46 0 0 0 .15-.04c.69-.522 1.443-.96 2.239-1.301.24-.107.47-.234.687-.38a33.472 33.472 0 0 1 3.533-2.052c.283-.142.55-.312.809-.473.679-.404 1.346-.808 2.02-1.212.83-.473 1.67-.905 2.483-1.39M87.717 35.512c.1.186.177.246.36.198.303-.085.602-.182.897-.275.186-.06.21-.085.105-.279a1.405 1.405 0 0 1-.032-1.28l.622-1.617c.117-.165.045-.307-.145-.315h-.78c-.26 0-.373.065-.445.323-.224.776-.442 1.553-.655 2.332-.03.1-.047.203-.053.307-.013.21.03.419.126.606" fill="#FFF"/>
            <path d="M104.403 33.641c-.659 1.01-1.338 2.02-1.969 3.03-.44.716-.848 1.451-1.212 2.199-.481.961-1.043 1.874-1.573 2.828-.137.25-.283.501-.436.743a1.96 1.96 0 0 1-.598.716 1.426 1.426 0 0 0-.457.63c-.271.533-.562 1.063-.853 1.588a2.165 2.165 0 0 1-.218.327c-.19.247-.287.247-.49.028-.497-.541-.99-1.082-1.5-1.616-.238-.246-.513-.452-.76-.683a13.655 13.655 0 0 1-1.903-2.299c-.117-.173-.093-.262.093-.383L95.02 39.1l.13-.093a22.752 22.752 0 0 1 2.987-1.899c.233-.12.446-.277.63-.465.277-.279.598-.51.95-.687 1.366-.78 2.733-1.563 4.103-2.339.206-.117.404-.214.63-.32h.073c.012 0 0 .05.025.106.024.056-.093.17-.146.254v-.016zm-12.91 5.495a33.48 33.48 0 0 0-3.534 2.077 4.553 4.553 0 0 1-.687.38c-.796.342-1.548.779-2.24 1.301a.46.46 0 0 1-.149.04.65.65 0 0 1 0-.198c.032-.125.089-.246.133-.367.114-.323.223-.647.344-1.006.404-1.063.837-2.166 1.273-3.261.086-.19.193-.369.32-.533a.809.809 0 0 1 .602-.328 7.381 7.381 0 0 0 2.773-.808 2.568 2.568 0 0 1 1.27-.36c.26-.03.513-.106.747-.226l4.131-1.531a32.246 32.246 0 0 1 4.164-1.156l1.148-.27s.04 0 .048.036 0 .057 0 .065a1.095 1.095 0 0 1-.182.15c-1.617.981-3.213 1.975-4.85 2.945-.809.485-1.654.917-2.47 1.386-.683.404-1.35.808-2.021 1.212-.271.157-.554.327-.82.469v-.017zm-3.182-6.869c.073-.258.133-.343.444-.323.312.02.522 0 .78 0 .19 0 .263.15.146.315l-.622 1.617c-.195.406-.183.88.032 1.276.105.194.08.219-.105.28-.295.092-.594.19-.897.274-.182.048-.26 0-.36-.198a1.18 1.18 0 0 1-.126-.606c.006-.104.023-.207.053-.307.215-.776.434-1.552.655-2.328zm2.704-.238a.868.868 0 0 1 .307.036c.057 0 .138.118.13.162-.053.23-.15.449-.198.679-.042.203-.06.41-.053.618a.46.46 0 0 0 .404.436.449.449 0 0 0 .514-.27c.148-.42.283-.845.404-1.273.069-.263.06-.287.335-.283.655 0 1.31.028 1.965.032h2.518c.097.006.193.02.287.04v-.023h.045a.442.442 0 0 1 .1-.045h.07c.024 0-.045.049-.07.049a.47.47 0 0 1-.1 0H97.616c-.04.137-.174.161-.283.194-2.086.642-4.11 1.45-6.136 2.254-.174.065-.352.11-.521.182-.542.218-.688.275-.667-.457.005-.184.03-.367.076-.545.146-.505.304-1.006.47-1.503.084-.255.145-.287.46-.283zm-4.648 3.1a.173.173 0 0 1-.138-.033.922.922 0 0 1-.404-.942c.036-.23.048-.464.093-.695.089-.484.19-.97.287-1.454a.259.259 0 0 1 .27-.222c.263 0 .522.028.78.048.195 0 .276.154.158.311-.234.606-.468 1.212-.695 1.818-.145.336-.23.694-.25 1.06a.162.162 0 0 1-.101.108zm-1.213-1.476a.278.278 0 0 1-.085.13c-.032.024-.11.044-.13.028a4.732 4.732 0 0 1-.488-.497.715.715 0 0 1-.093-.675c.04-.125.072-.25.105-.355.283-.72.194-.623.905-.598.105.009.21.028.311.056.125.05.185.19.135.315l-.001.004a6.87 6.87 0 0 0-.675 1.592h.016zm-1.48-1.551c-.027.09-.067.175-.117.254-.036.045-.153.097-.182.077-.368-.279-.727-.574-1.091-.865a.1.1 0 0 1-.028-.056c.04-.028.089-.077.129-.073.404.033.808.073 1.213.117.133 0 .19.146.141.295-.016.069-.044.15-.065.25zm23.094-1.576c-.15-.105-.32-.182-.465-.29a1.258 1.258 0 0 0-1.039-.243c-1.036.157-2.08.25-3.129.278-1.075.065-2.15.07-3.233.11-2.49.08-4.98.088-7.47-.057-1.043-.06-2.094-.073-3.137-.141-2.616-.166-5.255-.198-7.854-.291a1.913 1.913 0 0 0-1.104.355.477.477 0 0 0-.105.635c.1.12.207.234.323.339.194.178.405.331.586.521.741.743 1.52 1.447 2.333 2.11a38.41 38.41 0 0 1 2.85 2.71.699.699 0 0 1 .182.902c-.243.464-.457.941-.66 1.426a397.908 397.908 0 0 0-1.572 3.907c-.117.335-.32.933-.525 1.527-.036.1-.066.2-.09.303a.675.675 0 0 0 .352.728c.296.18.663.203.979.06a8.304 8.304 0 0 0 1.693-1.002 9.56 9.56 0 0 1 1.735-1.075c.707-.343 1.398-.723 2.097-1.086a2.63 2.63 0 0 1 .494-.239.623.623 0 0 1 .367.049.992.992 0 0 1 .235.202c.853.78 1.71 1.551 2.555 2.34a14.596 14.596 0 0 1 2.098 2.23 6.99 6.99 0 0 0 1.063 1.042c.205.178.5.21.74.08.26-.12.498-.29.699-.496a11.244 11.244 0 0 0 2.134-2.901c.315-.602.635-1.212.998-1.778.582-.91 1.072-1.863 1.573-2.828.463-.94.98-1.852 1.548-2.732a35.408 35.408 0 0 0 2.906-5.12c.156-.362.203-.762.134-1.15a.634.634 0 0 0-.291-.425z" fill="#28A8E0"/>
            <path d="M78.537 36.841c-.647-.17-1.298-.34-1.953-.5" stroke="#EDC51B" stroke-width="1.273" stroke-linecap="round"/>
            <path d="M72.546 35.556a15.137 15.137 0 0 0-5.8.271c-2.5.668-4.706 2.15-6.27 4.21-1.718 2.271-2.547 5.302-1.803 8.053.744 2.752 3.234 5.05 6.063 5.188 2.83.137 5.7-2.218 5.749-5.067.04-2.529-1.99-4.747-4.366-5.616-2.377-.869-5.016-.626-7.49-.101-8.489 1.798-16.574 7.584-19.593 15.532" stroke="#EDC51B" stroke-width="1.273" stroke-linecap="round" stroke-dasharray="5.658127601280055,5.658127601280055"/>
            <path d="M38.43 59.985c-.17.651-.305 1.31-.405 1.976" stroke="#EDC51B" stroke-width="1.273" stroke-linecap="round"/>
            <path d="M35.168 117.584c.307.452.683.596 1.03.244.348-.353.3-.834 0-1.285l-.299-.442-1.023 1.042.292.441zm.78-2.207.586.863c.473.7.473 1.449-.049 1.984-.521.536-1.123.392-1.617-.307l-.315-.462-1.063 1.122-.27-.402 2.728-2.798z" fill="#007EC4"/>
            <path d="M35.168 117.584c.307.452.683.596 1.03.244.348-.353.3-.834 0-1.285l-.299-.442-1.023 1.042.292.441zm.78-2.207.586.863c.473.7.473 1.449-.049 1.984-.521.536-1.123.392-1.617-.307l-.315-.462-1.063 1.122-.27-.402 2.728-2.798z" stroke="#007EC4" stroke-width=".5"/>
            <path d="M38.312 119.66a.638.638 0 0 0-.032-.978l-.356-.404-.942.917.356.384a.643.643 0 0 0 .974.08zm-.38-1.948.627.675a1.062 1.062 0 0 1 .04 1.584c-.366.349-.935.373-1.33.056l-.404 1.73-.347-.376.404-1.69-.222-.237-1.064.985-.29-.31 2.586-2.417z" fill="#007EC4"/>
            <path d="M38.312 119.66a.638.638 0 0 0-.032-.978l-.356-.404-.942.917.356.384a.643.643 0 0 0 .974.08zm-.38-1.948.627.675a1.062 1.062 0 0 1 .04 1.584c-.366.349-.935.373-1.33.056l-.404 1.73-.347-.376.404-1.69-.222-.237-1.064.985-.29-.31 2.586-2.417z" stroke="#007EC4" stroke-width=".5"/>
            <path fill="#007EC4" d="m39.384 121.421 1.083 1.043-.283.29-1.08-1.038-.84.873 1.188 1.143-.279.295-1.5-1.442 2.462-2.558 1.476 1.423-.283.29-1.168-1.123z"/>
            <path stroke="#007EC4" stroke-width=".5" d="m39.384 121.421 1.083 1.043-.283.29-1.08-1.038-.84.873 1.188 1.143-.279.295-1.5-1.442 2.462-2.558 1.476 1.423-.283.29-1.168-1.123z"/>
            <path d="M41.861 124.278c-.234-.521-.404-.998-.032-1.455a.97.97 0 0 1 1.371-.05l.016.014c.291.266.441.654.404 1.046h-.404a.888.888 0 0 0-.283-.727.55.55 0 0 0-.809 0c-.234.27-.097.578.126 1.063.222.485.36.937 0 1.37a.998.998 0 0 1-1.464 0c-.37-.321-.516-.83-.372-1.297l.405.072a.868.868 0 0 0 .23.917.594.594 0 0 0 .865 0c.259-.258.125-.557-.053-.953" fill="#007EC4"/>
            <path d="M41.861 124.278c-.234-.521-.404-.998-.032-1.455a.97.97 0 0 1 1.371-.05l.016.014c.291.266.441.654.404 1.046h-.404a.888.888 0 0 0-.283-.727.55.55 0 0 0-.809 0c-.234.27-.097.578.126 1.063.222.485.36.937 0 1.37a.998.998 0 0 1-1.464 0c-.37-.321-.516-.83-.372-1.297l.405.072a.868.868 0 0 0 .23.917.594.594 0 0 0 .865 0c.259-.258.125-.557-.053-.953z" stroke="#007EC4" stroke-width=".5"/>
            <path fill="#007EC4" d="m44.234 125.68 1.189.913-.247.32-1.188-.914-.736.958 1.31 1.01-.247.32-1.65-1.266 2.167-2.828 1.617 1.249-.246.323-1.286-.99z"/>
            <path stroke="#007EC4" stroke-width=".5" d="m44.234 125.68 1.189.913-.247.32-1.188-.914-.736.958 1.31 1.01-.247.32-1.65-1.266 2.167-2.828 1.617 1.249-.246.323-1.286-.99z"/>
            <path fill="#007EC4" d="M47.698 126.347v3.414l1.589-2.352.352.239-1.981 2.941-.368-.246v-3.415l-1.592 2.368-.352-.238 1.98-2.942z"/>
            <path stroke="#007EC4" stroke-width=".5" d="M47.698 126.347v3.414l1.589-2.352.352.239-1.981 2.941-.368-.246v-3.415l-1.592 2.368-.352-.238 1.98-2.942z"/>
            <path fill="#007EC4" d="m51.03 128.969-.878-.513.206-.352 2.122 1.249-.206.347-.877-.513-1.593 2.707-.363-.218z"/>
            <path stroke="#007EC4" stroke-width=".5" d="m51.03 128.969-.878-.513.206-.352 2.122 1.249-.206.347-.877-.513-1.593 2.707-.363-.218z"/>
            <path fill="#007EC4" d="m52.953 131.316 1.33.687-.182.36-1.334-.687-.557 1.075 1.471.755-.186.364-1.867-.937 1.616-3.152 1.82.937-.187.36-1.439-.743z"/>
            <path stroke="#007EC4" stroke-width=".5" d="m52.953 131.316 1.33.687-.182.36-1.334-.687-.557 1.075 1.471.755-.186.364-1.867-.937 1.616-3.152 1.82.937-.187.36-1.439-.743z"/>
            <path d="M57.473 133.74a1.265 1.265 0 0 0-.66-1.785l-.517-.23-1.103 2.505.517.226a1.262 1.262 0 0 0 1.746-.715h.017zm.404.183a1.662 1.662 0 0 1-2.32.917l-.934-.404 1.43-3.233.935.404a1.66 1.66 0 0 1 .889 2.316z" fill="#007EC4"/>
            <path d="M57.473 133.74a1.265 1.265 0 0 0-.66-1.785l-.517-.23-1.103 2.505.517.226a1.262 1.262 0 0 0 1.746-.715h.017zm.404.183a1.662 1.662 0 0 1-2.32.917l-.934-.404 1.43-3.233.935.404a1.66 1.66 0 0 1 .889 2.316z" stroke="#007EC4" stroke-width=".5"/>
            <path d="M61.92 135.07c.32.131.699.007.846-.276.148-.284.008-.62-.311-.751a.721.721 0 0 0-.134-.04l-.62-.181-.401 1.066.62.182zm.542 1.212c.118-.319-.023-.646-.57-.808l-.73-.214-.455 1.156.734.214c.565.161.902-.029 1.02-.348zm-1.071-2.986.998.295c.78.23 1.085.715.875 1.277-.084.282-.35.491-.675.533.366.228.502.65.329 1.015-.22.585-.848.808-1.6.598l-1.19-.348 1.263-3.37z" fill="#007EC4"/>
            <path d="M61.92 135.07c.32.131.699.007.846-.276.148-.284.008-.62-.311-.751a.721.721 0 0 0-.134-.04l-.62-.181-.401 1.066.62.182zm.542 1.212c.118-.319-.023-.646-.57-.808l-.73-.214-.455 1.156.734.214c.565.161.902-.029 1.02-.348zm-1.071-2.986.998.295c.78.23 1.085.715.875 1.277-.084.282-.35.491-.675.533.366.228.502.65.329 1.015-.22.585-.848.808-1.6.598l-1.19-.348 1.263-3.37z" stroke="#007EC4" stroke-width=".5"/>
            <path fill="#007EC4" d="m64.587 136.57-.598-2.389.456.125.473 1.928 1.355-1.439.436.113-1.714 1.774-.36 1.346-.404-.11z"/>
            <path stroke="#007EC4" stroke-width=".5" d="m64.587 136.57-.598-2.389.456.125.473 1.928 1.355-1.439.436.113-1.714 1.774-.36 1.346-.404-.11z"/>
            <path d="M70.472 137.163c.375.097.78-.06.905-.353a.454.454 0 0 0 .028-.091c.078-.34-.181-.594-.69-.663l-.73-.097-.244 1.107.731.097zm.84 1.131c.072-.33-.15-.638-.793-.723l-.866-.117-.264 1.212.865.117c.643.073.985-.157 1.042-.489h.016zm-1.778-2.808 1.182.158c.922.125 1.358.561 1.228 1.147-.042.29-.301.53-.658.614.456.177.69.579.56.962-.13.61-.793.921-1.68.808l-1.4-.186.768-3.503z" fill="#007EC4"/>
            <path d="M70.472 137.163c.375.097.78-.06.905-.353a.454.454 0 0 0 .028-.091c.078-.34-.181-.594-.69-.663l-.73-.097-.244 1.107.731.097zm.84 1.131c.072-.33-.15-.638-.793-.723l-.866-.117-.264 1.212.865.117c.643.073.985-.157 1.042-.489h.016zm-1.778-2.808 1.182.158c.922.125 1.358.561 1.228 1.147-.042.29-.301.53-.658.614.456.177.69.579.56.962-.13.61-.793.921-1.68.808l-1.4-.186.768-3.503z" stroke="#007EC4" stroke-width=".5"/>
            <path fill="#007EC4" d="m72.821 137.563 1.492.17-.045.404-1.491-.17-.138 1.212 1.641.19-.044.404-2.066-.234.404-3.523 2.022.23-.049.404-1.617-.182z"/>
            <path stroke="#007EC4" stroke-width=".5" d="m72.821 137.563 1.492.17-.045.404-1.491-.17-.138 1.212 1.641.19-.044.404-2.066-.234.404-3.523 2.022.23-.049.404-1.617-.182z"/>
            <path d="M76.532 138.323c-.501-.267-.946-.534-.91-1.136a.97.97 0 0 1 1.06-.87l.015.002c.4.024.763.237.979.573l-.336.239a.89.89 0 0 0-.663-.404.554.554 0 0 0-.627.468l-.003.025c0 .355.275.517.748.767.472.25.852.526.808 1.1a.998.998 0 0 1-1.156.896 1.213 1.213 0 0 1-1.083-.808l.363-.194a.885.885 0 0 0 .744.594.594.594 0 0 0 .695-.517c.04-.372-.25-.53-.634-.735" fill="#007EC4"/>
            <path d="M76.532 138.323c-.501-.267-.946-.534-.91-1.136a.97.97 0 0 1 1.06-.87l.015.002c.4.024.763.237.979.573l-.336.239a.89.89 0 0 0-.663-.404.554.554 0 0 0-.627.468l-.003.025c0 .355.275.517.748.767.472.25.852.526.808 1.1a.998.998 0 0 1-1.156.896 1.213 1.213 0 0 1-1.083-.808l.363-.194a.885.885 0 0 0 .744.594.594.594 0 0 0 .695-.517c.04-.372-.25-.53-.634-.735z" stroke="#007EC4" stroke-width=".5"/>
            <path fill="#007EC4" d="M79.535 136.876h-1.019v-.404l2.462.04v.405H79.96l-.053 3.14h-.424z"/>
            <path stroke="#007EC4" stroke-width=".5" d="M79.535 136.876h-1.019v-.404l2.462.04v.405H79.96l-.053 3.14h-.424z"/>
            <path d="M85.187 138.02c.695-.04 1.168-.28 1.092-.728-.076-.448-.555-.634-1.244-.598l-.67.04.15 1.322.672-.036zm-1.488-1.657 1.325-.073c1.062-.06 1.786.291 1.868.966.081.675-.555 1.103-1.623 1.164l-.706.04.163 1.402-.584.036-.443-3.535z" fill="#007EC4"/>
            <path d="M85.187 138.02c.695-.04 1.168-.28 1.092-.728-.076-.448-.555-.634-1.244-.598l-.67.04.15 1.322.672-.036zm-1.488-1.657 1.325-.073c1.062-.06 1.786.291 1.868.966.081.675-.555 1.103-1.623 1.164l-.706.04.163 1.402-.584.036-.443-3.535z" stroke="#007EC4" stroke-width=".5"/>
            <path fill="#007EC4" d="m86.763 136.08.404-.056.404 3.115 1.577-.214.052.404-2 .266z"/>
            <path stroke="#007EC4" stroke-width=".5" d="m86.763 136.08.404-.056.404 3.115 1.577-.214.052.404-2 .266z"/>
            <path d="m90.617 137.704 1.245-.23-.921-1.434-.324 1.664zm0-2.222.415-.077 2.076 3.233-.453.085-.56-.869-1.544.29-.187 1.011-.456.089.71-3.762z" fill="#007EC4"/>
            <path d="m90.617 137.704 1.245-.23-.921-1.434-.324 1.664zm0-2.222.415-.077 2.076 3.233-.453.085-.56-.869-1.544.29-.187 1.011-.456.089.71-3.762z" stroke="#007EC4" stroke-width=".5"/>
            <path d="M95.712 135.07a1.295 1.295 0 0 0-1.05-.158 1.438 1.438 0 0 0 .719 2.768c.378-.106.695-.365.873-.715l.352.21a1.806 1.806 0 0 1-1.124.897 1.839 1.839 0 0 1-.926-3.551 1.707 1.707 0 0 1 1.37.206l-.214.343z" fill="#007EC4"/>
            <path d="M95.712 135.07a1.295 1.295 0 0 0-1.05-.158 1.438 1.438 0 0 0 .719 2.768c.378-.106.695-.365.873-.715l.352.21a1.806 1.806 0 0 1-1.124.897 1.839 1.839 0 0 1-.926-3.551 1.707 1.707 0 0 1 1.37.206l-.214.343z" stroke="#007EC4" stroke-width=".5"/>
            <path fill="#007EC4" d="m97.584 135.292 1.427-.468.125.404-1.427.464.376 1.152 1.572-.513.126.384-1.977.646-1.103-3.37 1.948-.638.125.384-1.544.505z"/>
            <path stroke="#007EC4" stroke-width=".5" d="m97.584 135.292 1.427-.468.125.404-1.427.464.376 1.152 1.572-.513.126.384-1.977.646-1.103-3.37 1.948-.638.125.384-1.544.505z"/>
            <path fill="#007EC4" d="m102.402 133.523 1.354-.582.162.371-1.354.582.634 1.487-.404.166-1.398-3.26 1.839-.789.157.372-1.447.622z"/>
            <path stroke="#007EC4" stroke-width=".5" d="m102.402 133.523 1.354-.582.162.371-1.354.582.634 1.487-.404.166-1.398-3.26 1.839-.789.157.372-1.447.622z"/>
            <path d="M107.524 131.381a1.306 1.306 0 1 0-.514 1.863 1.358 1.358 0 0 0 .522-1.848l-.008-.015m.404-.206a1.753 1.753 0 1 1-3.197 1.446 1.753 1.753 0 0 1 .804-2.286 1.75 1.75 0 0 1 2.393.84" fill="#007EC4"/>
            <path d="M107.524 131.381a1.306 1.306 0 1 0-.514 1.863 1.358 1.358 0 0 0 .522-1.848l-.008-.015zm.404-.206a1.753 1.753 0 1 1-3.197 1.446 1.753 1.753 0 0 1 .804-2.286 1.75 1.75 0 0 1 2.393.84z" stroke="#007EC4" stroke-width=".5"/>
            <path d="M109.933 129.143a.635.635 0 0 0-.958-.178l-.449.267.655 1.107.449-.267a.634.634 0 0 0 .319-.93h-.016zm-1.98-.04.808-.473a1.067 1.067 0 0 1 1.556.294c.265.435.166.998-.23 1.318l1.616.771-.44.263-1.589-.768-.287.166.744 1.244-.368.219-1.81-3.035z" fill="#007EC4"/>
            <path d="M109.933 129.143a.635.635 0 0 0-.958-.178l-.449.267.655 1.107.449-.267a.634.634 0 0 0 .319-.93h-.016zm-1.98-.04.808-.473a1.067 1.067 0 0 1 1.556.294c.265.435.166.998-.23 1.318l1.616.771-.44.263-1.589-.768-.287.166.744 1.244-.368.219-1.81-3.035z" stroke="#007EC4" stroke-width=".5"/>
            <path fill="#007EC4" d="m113.543 127.51.181-2.19.441-.315-.198 2.283 2.425.489-.469.34-2.271-.437.99 1.37-.344.25-2.077-2.873.343-.25z"/>
            <path stroke="#007EC4" stroke-width=".5" d="m113.543 127.51.181-2.19.441-.315-.198 2.283 2.425.489-.469.34-2.271-.437.99 1.37-.344.25-2.077-2.873.343-.25z"/>
            <path fill="#007EC4" d="m114.998 124.338.335-.266 2.207 2.776-.331.262z"/>
            <path stroke="#007EC4" stroke-width=".5" d="m114.998 124.338.335-.266 2.207 2.776-.331.262z"/>
            <path d="M119.262 123.054a1.27 1.27 0 0 0-1.9-.15l-.404.372 1.807 2.056.429-.375a1.272 1.272 0 0 0 .052-1.903h.016zm.34-.3a1.665 1.665 0 0 1-.142 2.49l-.768.67-2.344-2.658.768-.675a1.661 1.661 0 0 1 2.486.174z" fill="#007EC4"/>
            <path d="M119.262 123.054a1.27 1.27 0 0 0-1.9-.15l-.404.372 1.807 2.056.429-.375a1.272 1.272 0 0 0 .052-1.903h.016zm.34-.3a1.665 1.665 0 0 1-.142 2.49l-.768.67-2.344-2.658.768-.675a1.661 1.661 0 0 1 2.486.174z" stroke="#007EC4" stroke-width=".5"/>
            <path d="M121.186 121.454c-.533.198-1.026.347-1.45-.081a.974.974 0 0 1 .061-1.376l.007-.006a1.277 1.277 0 0 1 1.083-.344l-.044.405a.91.91 0 0 0-.752.222.553.553 0 0 0-.053.808c.255.254.57.141 1.072-.04.5-.182.962-.283 1.366.12a1.002 1.002 0 0 1-.101 1.46c-.349.346-.87.452-1.326.27l.101-.404a.885.885 0 0 0 .938-.158.598.598 0 0 0 .077-.864c-.26-.25-.57-.162-.979-.012" fill="#007EC4"/>
            <path d="M121.186 121.454c-.533.198-1.026.347-1.45-.081a.974.974 0 0 1 .061-1.376l.007-.006a1.277 1.277 0 0 1 1.083-.344l-.044.405a.91.91 0 0 0-.752.222.553.553 0 0 0-.053.808c.255.254.57.141 1.072-.04.5-.182.962-.283 1.366.12a1.002 1.002 0 0 1-.101 1.46c-.349.346-.87.452-1.326.27l.101-.404a.885.885 0 0 0 .938-.158.598.598 0 0 0 .077-.864c-.26-.25-.57-.162-.979-.012z" stroke="#007EC4" stroke-width=".5"/>
            <path d="M124.511 121.207a.302.302 0 0 1-.45.002.363.363 0 0 1-.002-.486.302.302 0 0 1 .45-.002l.002.002a.378.378 0 0 1 0 .498v-.014zm-.64-.967-.32.377-2.146-2.132.322-.377 2.143 2.132z" fill="#007EC4"/>
            <path d="M124.511 121.207a.302.302 0 0 1-.45.002.363.363 0 0 1-.002-.486.302.302 0 0 1 .45-.002l.002.002a.378.378 0 0 1 0 .498v-.014zm-.64-.967-.32.377-2.146-2.132.322-.377 2.143 2.132z" stroke="#007EC4" stroke-width=".5"/>
            <path d="M124.238 117.309c-.12-.1-.22-.031-.295.056l-.145.17.29.244.138-.169c.088-.088.138-.2.031-.301h-.019zm-.923.314.465-.546a.497.497 0 0 1 .699-.06l.004.003a.47.47 0 0 1 .132.559l.679.056-.29.339-.627-.082-.076.094.39.333-.245.282-1.131-.978zm1.885.847a1.203 1.203 0 0 0-.14-1.698 1.207 1.207 0 0 0-1.7.14 1.203 1.203 0 0 0 .137 1.696c.507.431 1.269.37 1.7-.136l.003-.002zm-2.15-1.814a1.603 1.603 0 0 1 2.26-.183c.674.571.756 1.581.184 2.254a1.604 1.604 0 0 1-2.255.188 1.61 1.61 0 0 1-.188-2.259z" fill="#007EC4"/>
        </g>
        <g transform="translate(8.561 7.693)">
            <mask id="hxqwki8aah" fill="#fff">
                <use xlink:href="#xyplwaf6sg"/>
            </mask>
            <path d="M71.41 3.988c37.689 0 68.241 30.54 68.241 68.212 0 37.672-30.552 68.212-68.24 68.212-37.69 0-68.242-30.54-68.242-68.212 0-37.673 30.553-68.212 68.241-68.212z" stroke="#0A5272" stroke-width="2.735" mask="url(#hxqwki8aah)"/>
            <mask id="hn3tgn4y6j" fill="#fff">
                <use xlink:href="#k1ozx6d8ki"/>
            </mask>
            <path d="M141.16 56.478H1.701a73.624 73.624 0 0 0-.085 31.27h139.457l.138-.037a73.507 73.507 0 0 0-.09-31.229l.037-.004z" fill="#FFF" mask="url(#hn3tgn4y6j)"/>
            <mask id="ep308xtfsl" fill="#fff">
                <use xlink:href="#aehg51pvtk"/>
            </mask>
            <path fill="#0A5272" mask="url(#ep308xtfsl)" d="M.445 86.362h143.333v-1.56H.445zM.445 59.367h143.333v-1.56H.445z"/>
        </g>
        <g>
            <path d="M20.822 76.976c0-1.313-.853-2.186-2.482-2.186h-2.046v4.368h2.046c1.629.004 2.482-.87 2.482-2.178v-.004zm-6.913-4.445h4.726c2.76 0 4.608 1.907 4.608 4.445 0 2.537-1.847 4.444-4.608 4.444h-2.34v5.006h-2.386V72.531z" fill="#177EBC"/>
            <path d="M20.822 76.976c0-1.313-.853-2.186-2.482-2.186h-2.046v4.368h2.046c1.629.004 2.482-.87 2.482-2.178v-.004zm-6.913-4.445h4.726c2.76 0 4.608 1.907 4.608 4.445 0 2.537-1.847 4.444-4.608 4.444h-2.34v5.006h-2.386V72.531z" stroke="#177EBC" stroke-width=".5"/>
            <path d="M29.363 80.947h4.188l-2.086-5.418-2.102 5.418zm.873-8.416h2.425l5.397 13.895h-2.401l-1.274-3.297h-5.877l-1.27 3.297h-2.405l5.405-13.895z" fill="#177EBC"/>
            <path d="M29.363 80.947h4.188l-2.086-5.418-2.102 5.418zm.873-8.416h2.425l5.397 13.895h-2.401l-1.274-3.297h-5.877l-1.27 3.297h-2.405l5.405-13.895z" stroke="#177EBC" stroke-width=".5"/>
            <path d="M48.386 76.859c0-1.37-.954-2.065-2.482-2.065h-1.888v4.13h1.888c1.528 0 2.482-.696 2.482-2.065zm-6.75-4.328h4.567c2.757 0 4.604 1.786 4.604 4.328 0 2.084-1.112 3.672-3.096 4.17l3.476 5.397h-2.781l-3.299-5.252h-1.091v5.252h-2.38V72.531z" fill="#177EBC"/>
            <path d="M48.386 76.859c0-1.37-.954-2.065-2.482-2.065h-1.888v4.13h1.888c1.528 0 2.482-.696 2.482-2.065zm-6.75-4.328h4.567c2.757 0 4.604 1.786 4.604 4.328 0 2.084-1.112 3.672-3.096 4.17l3.476 5.397h-2.781l-3.299-5.252h-1.091v5.252h-2.38V72.531z" stroke="#177EBC" stroke-width=".5"/>
            <path fill="#177EBC" d="M57.582 78.168h5.558v2.262h-5.558v3.734h6.156v2.262h-8.541V72.531h8.42v2.263h-6.035z"/>
            <path stroke="#177EBC" stroke-width=".5" d="M57.582 78.168h5.558v2.262h-5.558v3.734h6.156v2.262h-8.541V72.531h8.42v2.263h-6.035z"/>
            <path fill="#177EBC" d="m70.173 72.531 6.949 9.568v-9.568h2.38v13.895H77.36l-6.952-9.547v9.547h-2.381V72.531z"/>
            <path stroke="#177EBC" stroke-width=".5" d="m70.173 72.531 6.949 9.568v-9.568h2.38v13.895H77.36l-6.952-9.547v9.547h-2.381V72.531z"/>
            <path fill="#177EBC" d="M87.07 74.794h-3.832V72.53h10.049v2.263h-3.832v11.632H87.07z"/>
            <path stroke="#177EBC" stroke-width=".5" d="M87.07 74.794h-3.832V72.53h10.049v2.263h-3.832v11.632H87.07z"/>
            <path d="M103.922 76.976c0-1.313-.853-2.186-2.482-2.186h-2.045v4.368h2.065c1.617.004 2.47-.87 2.47-2.178l-.008-.004zm-6.908-4.445h4.725c2.761 0 4.608 1.907 4.608 4.445 0 2.537-1.847 4.444-4.608 4.444h-2.344v5.006h-2.381V72.531zM112.471 80.947h4.172l-2.086-5.418-2.086 5.418zm.873-8.416h2.426l5.4 13.895h-2.405l-1.27-3.297h-5.877l-1.265 3.297h-2.425l5.416-13.895zM129.154 80.632c-2.046-.715-4.35-1.826-4.35-4.408 0-1.964 1.746-3.931 4.548-3.931 1.76.032 3.417.84 4.527 2.206l-1.65 1.616s-1.151-1.568-2.877-1.568c-1.193 0-2.126.736-2.126 1.67 0 1.211 1.095 1.587 2.999 2.302 2.126.808 3.893 1.746 3.893 4.267 0 2.521-2.224 3.87-4.851 3.87a6.063 6.063 0 0 1-5.081-2.828l1.786-1.507s1.213 2.085 3.295 2.085c1.192 0 2.425-.477 2.425-1.616 0-1.14-.89-1.576-2.538-2.158M142.954 80.632c-2.046-.715-4.346-1.826-4.346-4.408 0-1.964 1.747-3.931 4.544-3.931a5.968 5.968 0 0 1 4.527 2.206l-1.645 1.616s-1.152-1.568-2.882-1.568c-1.188 0-2.122.736-2.122 1.67 0 1.211 1.091 1.587 3 2.302 2.121.808 3.888 1.746 3.888 4.267 0 2.521-2.223 3.87-4.85 3.87a6.063 6.063 0 0 1-5.086-2.828l1.787-1.507s1.192 2.085 3.298 2.085c1.193 0 2.425-.477 2.425-1.616 0-1.14-.889-1.576-2.538-2.158" fill="#0A5272"/>
        </g>
    </g>
</svg>
